<?xml version="1.0" encoding="utf-8"?>
<!-- Generator: Adobe Illustrator 18.0.0, SVG Export Plug-In . SVG Version: 6.00 Build 0)  -->
<!DOCTYPE svg PUBLIC "-//W3C//DTD SVG 1.1//EN" "http://www.w3.org/Graphics/SVG/1.1/DTD/svg11.dtd">
<svg version="1.1" xmlns="http://www.w3.org/2000/svg" xmlns:xlink="http://www.w3.org/1999/xlink" x="0px" y="0px"
	 viewBox="0 0 143.5 48.5" enable-background="new 0 0 143.5 48.5" xml:space="preserve">
<g id="diseñador">
	<g>
		<g>
			<path fill="#0096CB" stroke="#0096CB" stroke-width="0.6196" stroke-miterlimit="10" d="M51,32.1c0,0.6-0.1,1.1-0.3,1.6
				c-0.2,0.5-0.4,0.9-0.7,1.2c-0.3,0.3-0.7,0.6-1.1,0.8c-0.4,0.2-0.9,0.3-1.5,0.3h-2.8v-7.6h2.8c0.5,0,1,0.1,1.5,0.3
				c0.4,0.2,0.8,0.4,1.1,0.8c0.3,0.3,0.6,0.7,0.7,1.2C51,31,51,31.6,51,32.1z M50.5,32.1c0-0.5-0.1-1-0.2-1.4
				c-0.1-0.4-0.4-0.8-0.6-1.1c-0.3-0.3-0.6-0.5-1-0.7s-0.8-0.2-1.3-0.2h-2.2v6.7h2.2c0.5,0,0.9-0.1,1.3-0.2c0.4-0.2,0.7-0.4,1-0.7
				c0.3-0.3,0.5-0.6,0.6-1.1C50.4,33.1,50.5,32.7,50.5,32.1z"/>
			<path fill="#0096CB" stroke="#0096CB" stroke-width="0.6196" stroke-miterlimit="10" d="M53.4,28.8c0,0.1,0,0.1,0,0.2
				c0,0.1-0.1,0.1-0.1,0.1c0,0-0.1,0.1-0.2,0.1c-0.1,0-0.1,0-0.2,0c-0.1,0-0.1,0-0.2,0c-0.1,0-0.1-0.1-0.2-0.1c0,0-0.1-0.1-0.1-0.1
				c0-0.1,0-0.1,0-0.2c0-0.1,0-0.1,0-0.2c0-0.1,0.1-0.1,0.1-0.2c0,0,0.1-0.1,0.2-0.1c0.1,0,0.1,0,0.2,0c0.1,0,0.1,0,0.2,0
				c0.1,0,0.1,0.1,0.2,0.1c0,0,0.1,0.1,0.1,0.2C53.4,28.6,53.4,28.7,53.4,28.8z M53.2,30.6v5.3h-0.5v-5.3H53.2z"/>
			<path fill="#0096CB" stroke="#0096CB" stroke-width="0.6196" stroke-miterlimit="10" d="M58,31.3c0,0-0.1,0.1-0.1,0.1
				c0,0-0.1,0-0.2-0.1c-0.1,0-0.1-0.1-0.2-0.2c-0.1-0.1-0.2-0.1-0.4-0.2c-0.1,0-0.3-0.1-0.5-0.1c-0.2,0-0.4,0-0.5,0.1
				c-0.2,0.1-0.3,0.1-0.4,0.2s-0.2,0.2-0.3,0.3c-0.1,0.1-0.1,0.3-0.1,0.4c0,0.2,0,0.3,0.1,0.4c0.1,0.1,0.2,0.2,0.3,0.3
				c0.1,0.1,0.3,0.1,0.5,0.2c0.2,0.1,0.4,0.1,0.5,0.2c0.2,0.1,0.4,0.1,0.5,0.2c0.2,0.1,0.3,0.2,0.5,0.3c0.1,0.1,0.3,0.2,0.3,0.4
				c0.1,0.2,0.1,0.3,0.1,0.5c0,0.2,0,0.4-0.1,0.7c-0.1,0.2-0.2,0.4-0.4,0.5c-0.2,0.1-0.4,0.3-0.6,0.3C57,36,56.7,36,56.4,36
				c-0.4,0-0.7-0.1-1-0.2c-0.3-0.1-0.5-0.3-0.7-0.5l0.1-0.2c0,0,0,0,0.1-0.1c0,0,0.1,0,0.1,0c0,0,0.1,0,0.2,0.1
				c0.1,0.1,0.2,0.1,0.3,0.2c0.1,0.1,0.2,0.1,0.4,0.2c0.2,0.1,0.4,0.1,0.6,0.1c0.2,0,0.4,0,0.6-0.1c0.2-0.1,0.3-0.1,0.4-0.3
				c0.1-0.1,0.2-0.2,0.3-0.4c0.1-0.1,0.1-0.3,0.1-0.5c0-0.2,0-0.3-0.1-0.4c-0.1-0.1-0.2-0.2-0.3-0.3c-0.1-0.1-0.3-0.2-0.5-0.2
				c-0.2-0.1-0.4-0.1-0.5-0.2c-0.2-0.1-0.4-0.1-0.5-0.2c-0.2-0.1-0.3-0.2-0.5-0.3S55,32.7,55,32.5c-0.1-0.1-0.1-0.3-0.1-0.6
				c0-0.2,0-0.4,0.1-0.5c0.1-0.2,0.2-0.3,0.4-0.5c0.2-0.1,0.3-0.2,0.6-0.3s0.5-0.1,0.7-0.1c0.3,0,0.6,0,0.9,0.1
				c0.3,0.1,0.5,0.2,0.7,0.4L58,31.3z"/>
			<path fill="#0096CB" stroke="#0096CB" stroke-width="0.6196" stroke-miterlimit="10" d="M61.7,30.5c0.3,0,0.6,0.1,0.8,0.2
				c0.3,0.1,0.5,0.3,0.7,0.5c0.2,0.2,0.3,0.4,0.4,0.7c0.1,0.3,0.2,0.6,0.2,1c0,0.1,0,0.1,0,0.2c0,0-0.1,0-0.1,0h-3.9v0.1
				c0,0.4,0,0.8,0.1,1.1c0.1,0.3,0.2,0.6,0.4,0.8c0.2,0.2,0.4,0.4,0.6,0.5c0.2,0.1,0.5,0.2,0.8,0.2c0.3,0,0.5,0,0.7-0.1
				c0.2-0.1,0.4-0.1,0.5-0.2c0.1-0.1,0.2-0.1,0.3-0.2c0.1-0.1,0.1-0.1,0.2-0.1c0,0,0.1,0,0.1,0.1l0.1,0.2c-0.1,0.1-0.2,0.2-0.3,0.3
				c-0.1,0.1-0.3,0.2-0.5,0.2c-0.2,0.1-0.4,0.1-0.6,0.2C62.2,36,62,36,61.8,36c-0.4,0-0.7-0.1-1-0.2c-0.3-0.1-0.6-0.3-0.8-0.6
				c-0.2-0.2-0.4-0.5-0.5-0.9c-0.1-0.4-0.2-0.8-0.2-1.2c0-0.4,0.1-0.7,0.2-1.1c0.1-0.3,0.3-0.6,0.5-0.8c0.2-0.2,0.5-0.4,0.8-0.6
				C61,30.6,61.4,30.5,61.7,30.5z M61.7,30.9c-0.3,0-0.5,0-0.7,0.1c-0.2,0.1-0.4,0.2-0.6,0.4s-0.3,0.4-0.4,0.6
				c-0.1,0.2-0.2,0.5-0.2,0.8h3.5c0-0.3,0-0.5-0.1-0.8c-0.1-0.2-0.2-0.4-0.3-0.6c-0.1-0.2-0.3-0.3-0.5-0.4
				C62.2,30.9,62,30.9,61.7,30.9z"/>
			<path fill="#0096CB" stroke="#0096CB" stroke-width="0.6196" stroke-miterlimit="10" d="M65.2,35.9v-5.3h0.3c0.1,0,0.1,0,0.2,0.1
				l0,0.8c0.2-0.3,0.5-0.6,0.9-0.7c0.3-0.2,0.7-0.3,1.1-0.3c0.3,0,0.6,0,0.8,0.1c0.2,0.1,0.4,0.2,0.6,0.4c0.1,0.2,0.3,0.4,0.3,0.6
				c0.1,0.2,0.1,0.5,0.1,0.8v3.4h-0.5v-3.4c0-0.5-0.1-0.9-0.3-1.2c-0.2-0.3-0.6-0.4-1.1-0.4c-0.4,0-0.7,0.1-1,0.3
				c-0.3,0.2-0.6,0.4-0.8,0.7v4H65.2z M67.9,29.1c0.2,0,0.3,0,0.3-0.1c0.1-0.1,0.1-0.2,0.1-0.4h0.3c0,0.1,0,0.3-0.1,0.4
				c0,0.1-0.1,0.2-0.2,0.3c-0.1,0.1-0.1,0.1-0.2,0.2c-0.1,0-0.2,0.1-0.3,0.1c-0.1,0-0.2,0-0.3-0.1c-0.1-0.1-0.2-0.1-0.3-0.2
				C67.2,29.1,67.1,29,67,29c-0.1-0.1-0.2-0.1-0.3-0.1c-0.2,0-0.3,0.1-0.3,0.2c-0.1,0.1-0.1,0.2-0.1,0.4h-0.3c0-0.1,0-0.3,0.1-0.4
				c0-0.1,0.1-0.2,0.2-0.3c0.1-0.1,0.2-0.1,0.2-0.2c0.1,0,0.2-0.1,0.3-0.1c0.1,0,0.2,0,0.3,0.1c0.1,0.1,0.2,0.1,0.3,0.2
				c0.1,0.1,0.2,0.1,0.3,0.2C67.7,29,67.8,29.1,67.9,29.1z"/>
			<path fill="#0096CB" stroke="#0096CB" stroke-width="0.6196" stroke-miterlimit="10" d="M74.4,35.9c-0.1,0-0.2,0-0.2-0.2
				l-0.1-0.7c-0.1,0.1-0.3,0.3-0.4,0.4c-0.1,0.1-0.3,0.2-0.5,0.3c-0.2,0.1-0.3,0.1-0.5,0.2c-0.2,0-0.4,0.1-0.6,0.1
				c-0.2,0-0.4,0-0.5-0.1c-0.2-0.1-0.3-0.1-0.5-0.2c-0.1-0.1-0.2-0.3-0.3-0.4c-0.1-0.2-0.1-0.4-0.1-0.6c0-0.2,0.1-0.4,0.2-0.6
				c0.1-0.2,0.3-0.4,0.6-0.5c0.3-0.1,0.6-0.3,1.1-0.3c0.4-0.1,1-0.1,1.6-0.2v-0.6c0-0.5-0.1-0.9-0.3-1.1s-0.5-0.4-0.9-0.4
				c-0.3,0-0.5,0-0.7,0.1c-0.2,0.1-0.3,0.2-0.5,0.2c-0.1,0.1-0.2,0.2-0.3,0.2c-0.1,0.1-0.1,0.1-0.2,0.1c-0.1,0-0.1,0-0.2-0.1
				L71,31.4c0.3-0.3,0.6-0.5,0.9-0.6c0.3-0.1,0.7-0.2,1-0.2c0.3,0,0.5,0,0.8,0.1c0.2,0.1,0.4,0.2,0.5,0.4c0.1,0.2,0.2,0.4,0.3,0.6
				s0.1,0.5,0.1,0.8v3.5H74.4z M72.3,35.7c0.2,0,0.4,0,0.6-0.1c0.2,0,0.3-0.1,0.5-0.2c0.1-0.1,0.3-0.2,0.4-0.3
				c0.1-0.1,0.3-0.2,0.4-0.4v-1.4c-0.5,0-0.9,0.1-1.3,0.1s-0.7,0.1-0.9,0.3c-0.2,0.1-0.4,0.2-0.5,0.4c-0.1,0.1-0.2,0.3-0.2,0.5
				c0,0.2,0,0.3,0.1,0.5c0.1,0.1,0.1,0.2,0.2,0.3c0.1,0.1,0.2,0.1,0.3,0.2C72,35.6,72.2,35.7,72.3,35.7z"/>
			<path fill="#0096CB" stroke="#0096CB" stroke-width="0.6196" stroke-miterlimit="10" d="M80.1,35.9c-0.1,0-0.1,0-0.2-0.1L79.9,35
				c-0.2,0.3-0.5,0.6-0.8,0.8C78.7,35.9,78.3,36,78,36c-0.7,0-1.2-0.2-1.5-0.7c-0.4-0.5-0.6-1.1-0.6-2c0-0.4,0.1-0.8,0.2-1.1
				c0.1-0.3,0.3-0.6,0.5-0.9c0.2-0.2,0.4-0.4,0.7-0.6c0.3-0.1,0.6-0.2,1-0.2c0.4,0,0.7,0.1,0.9,0.2c0.3,0.1,0.5,0.3,0.7,0.6v-3.2
				h0.5v7.8H80.1z M78.1,35.6c0.4,0,0.7-0.1,1-0.3c0.3-0.2,0.5-0.4,0.8-0.8v-2.8c-0.2-0.3-0.4-0.5-0.7-0.6c-0.2-0.1-0.5-0.2-0.8-0.2
				c-0.3,0-0.6,0.1-0.8,0.2c-0.2,0.1-0.4,0.3-0.6,0.5c-0.2,0.2-0.3,0.5-0.4,0.8c-0.1,0.3-0.1,0.6-0.1,1c0,0.8,0.1,1.4,0.4,1.8
				S77.5,35.6,78.1,35.6z"/>
			<path fill="#0096CB" stroke="#0096CB" stroke-width="0.6196" stroke-miterlimit="10" d="M84.2,30.5c0.4,0,0.7,0.1,1,0.2
				c0.3,0.1,0.6,0.3,0.8,0.6c0.2,0.2,0.4,0.5,0.5,0.9c0.1,0.3,0.2,0.7,0.2,1.1c0,0.4-0.1,0.8-0.2,1.1c-0.1,0.3-0.3,0.6-0.5,0.9
				c-0.2,0.2-0.5,0.4-0.8,0.6c-0.3,0.1-0.6,0.2-1,0.2c-0.4,0-0.7-0.1-1-0.2c-0.3-0.1-0.6-0.3-0.8-0.6c-0.2-0.2-0.4-0.5-0.5-0.9
				c-0.1-0.3-0.2-0.7-0.2-1.1c0-0.4,0.1-0.8,0.2-1.1c0.1-0.3,0.3-0.6,0.5-0.9c0.2-0.2,0.5-0.4,0.8-0.6
				C83.4,30.6,83.8,30.5,84.2,30.5z M84.2,35.6c0.3,0,0.6-0.1,0.8-0.2c0.2-0.1,0.4-0.3,0.6-0.5c0.2-0.2,0.3-0.5,0.4-0.7
				c0.1-0.3,0.1-0.6,0.1-1c0-0.4,0-0.7-0.1-1c-0.1-0.3-0.2-0.5-0.4-0.7c-0.2-0.2-0.4-0.4-0.6-0.5c-0.2-0.1-0.5-0.2-0.8-0.2
				c-0.3,0-0.6,0.1-0.8,0.2c-0.2,0.1-0.4,0.3-0.6,0.5c-0.2,0.2-0.3,0.5-0.4,0.7c-0.1,0.3-0.1,0.6-0.1,1c0,0.4,0,0.7,0.1,1
				c0.1,0.3,0.2,0.5,0.4,0.7c0.2,0.2,0.4,0.4,0.6,0.5C83.6,35.6,83.9,35.6,84.2,35.6z"/>
			<path fill="#0096CB" stroke="#0096CB" stroke-width="0.6196" stroke-miterlimit="10" d="M88,35.9v-5.3h0.3c0.1,0,0.1,0,0.1,0
				c0,0,0,0.1,0,0.1l0,1.1c0.2-0.4,0.4-0.8,0.7-1c0.3-0.2,0.6-0.4,1.1-0.4c0.2,0,0.3,0,0.4,0.1c0.1,0,0.3,0.1,0.4,0.1L91,31.1
				c0,0.1,0,0.1-0.1,0.1c0,0-0.1,0-0.1,0c0,0-0.1,0-0.1,0c-0.1,0-0.1,0-0.2,0c-0.1,0-0.2,0-0.3,0c-0.4,0-0.7,0.1-1,0.4
				c-0.3,0.3-0.5,0.6-0.6,1.1v3.5H88z"/>
			<path fill="#0096CB" stroke="#0096CB" stroke-width="0.6196" stroke-miterlimit="10" d="M97.8,35.6c0.3,0,0.5,0,0.7,0
				c0.2,0,0.4-0.1,0.6-0.1c0.2-0.1,0.4-0.1,0.5-0.2c0.2-0.1,0.3-0.2,0.5-0.3v-2h-1.5c0,0-0.1,0-0.1,0c0,0,0-0.1,0-0.1v-0.3h2.1v2.7
				c-0.2,0.1-0.4,0.3-0.6,0.4c-0.2,0.1-0.4,0.2-0.7,0.3c-0.2,0.1-0.5,0.1-0.8,0.2c-0.3,0-0.6,0.1-0.9,0.1c-0.5,0-1-0.1-1.5-0.3
				c-0.5-0.2-0.8-0.4-1.2-0.8c-0.3-0.3-0.6-0.7-0.8-1.2c-0.2-0.5-0.3-1-0.3-1.6c0-0.6,0.1-1.1,0.3-1.6c0.2-0.5,0.4-0.9,0.8-1.2
				c0.3-0.3,0.7-0.6,1.2-0.8c0.5-0.2,1-0.3,1.6-0.3c0.3,0,0.6,0,0.8,0.1c0.2,0,0.5,0.1,0.7,0.2s0.4,0.2,0.6,0.3
				c0.2,0.1,0.4,0.2,0.5,0.4l-0.1,0.2c0,0.1-0.1,0.1-0.1,0.1c0,0-0.1,0-0.1,0c-0.1,0-0.1-0.1-0.2-0.2c-0.1-0.1-0.2-0.2-0.4-0.2
				c-0.2-0.1-0.4-0.2-0.7-0.2c-0.3-0.1-0.6-0.1-1-0.1c-0.5,0-0.9,0.1-1.3,0.2c-0.4,0.2-0.7,0.4-1,0.7c-0.3,0.3-0.5,0.7-0.7,1.1
				c-0.2,0.4-0.2,0.9-0.2,1.4c0,0.5,0.1,1,0.2,1.4c0.2,0.4,0.4,0.8,0.6,1.1c0.3,0.3,0.6,0.5,1,0.7C96.9,35.5,97.4,35.6,97.8,35.6z"
				/>
			<path fill="#0096CB" stroke="#0096CB" stroke-width="0.6196" stroke-miterlimit="10" d="M102.3,35.9v-5.3h0.3c0.1,0,0.1,0,0.1,0
				c0,0,0,0.1,0,0.1l0,1.1c0.2-0.4,0.4-0.8,0.7-1c0.3-0.2,0.6-0.4,1.1-0.4c0.2,0,0.3,0,0.4,0.1c0.1,0,0.3,0.1,0.4,0.1l-0.1,0.4
				c0,0.1,0,0.1-0.1,0.1c0,0-0.1,0-0.1,0c0,0-0.1,0-0.1,0c-0.1,0-0.1,0-0.2,0c-0.1,0-0.2,0-0.3,0c-0.4,0-0.7,0.1-1,0.4
				c-0.3,0.3-0.5,0.6-0.6,1.1v3.5H102.3z"/>
			<path fill="#0096CB" stroke="#0096CB" stroke-width="0.6196" stroke-miterlimit="10" d="M109.8,35.9c-0.1,0-0.2,0-0.2-0.2
				l-0.1-0.7c-0.1,0.1-0.3,0.3-0.4,0.4c-0.1,0.1-0.3,0.2-0.5,0.3c-0.2,0.1-0.3,0.1-0.5,0.2c-0.2,0-0.4,0.1-0.6,0.1
				c-0.2,0-0.4,0-0.5-0.1c-0.2-0.1-0.3-0.1-0.5-0.2c-0.1-0.1-0.2-0.3-0.3-0.4c-0.1-0.2-0.1-0.4-0.1-0.6c0-0.2,0.1-0.4,0.2-0.6
				c0.1-0.2,0.3-0.4,0.6-0.5c0.3-0.1,0.6-0.3,1.1-0.3c0.4-0.1,1-0.1,1.6-0.2v-0.6c0-0.5-0.1-0.9-0.3-1.1c-0.2-0.3-0.5-0.4-0.9-0.4
				c-0.3,0-0.5,0-0.7,0.1c-0.2,0.1-0.3,0.2-0.5,0.2c-0.1,0.1-0.2,0.2-0.3,0.2c-0.1,0.1-0.1,0.1-0.2,0.1c-0.1,0-0.1,0-0.2-0.1
				l-0.1-0.2c0.3-0.3,0.6-0.5,0.9-0.6c0.3-0.1,0.7-0.2,1-0.2c0.3,0,0.5,0,0.8,0.1c0.2,0.1,0.4,0.2,0.5,0.4c0.1,0.2,0.2,0.4,0.3,0.6
				s0.1,0.5,0.1,0.8v3.5H109.8z M107.6,35.7c0.2,0,0.4,0,0.6-0.1c0.2,0,0.3-0.1,0.5-0.2c0.1-0.1,0.3-0.2,0.4-0.3
				c0.1-0.1,0.3-0.2,0.4-0.4v-1.4c-0.5,0-0.9,0.1-1.3,0.1c-0.4,0.1-0.7,0.1-0.9,0.3c-0.2,0.1-0.4,0.2-0.5,0.4
				c-0.1,0.1-0.2,0.3-0.2,0.5c0,0.2,0,0.3,0.1,0.5c0.1,0.1,0.1,0.2,0.2,0.3c0.1,0.1,0.2,0.1,0.3,0.2
				C107.3,35.6,107.5,35.7,107.6,35.7z M109.4,28.3l-1.2,1.4c0,0-0.1,0.1-0.1,0.1c0,0-0.1,0-0.1,0h-0.3l0.8-1.3
				c0-0.1,0.1-0.1,0.1-0.1c0,0,0.1,0,0.2,0H109.4z"/>
			<path fill="#0096CB" stroke="#0096CB" stroke-width="0.6196" stroke-miterlimit="10" d="M111.8,35.9v-4.8l-0.8,0
				c-0.1,0-0.2-0.1-0.2-0.1v-0.2h0.9v-0.5c0-0.3,0-0.6,0.1-0.9c0.1-0.3,0.2-0.5,0.4-0.7c0.2-0.2,0.4-0.3,0.7-0.4s0.6-0.1,0.9-0.1
				c0.1,0,0.2,0,0.4,0s0.2,0,0.3,0.1l0,0.3c0,0,0,0.1-0.1,0.1c0,0-0.1,0-0.2,0c-0.1,0-0.2,0-0.3,0c-0.6,0-1,0.1-1.3,0.4
				c-0.3,0.3-0.5,0.7-0.5,1.3v0.4h3.1v5.2h-0.5v-4.8h-2.6v4.8H111.8z"/>
			<path fill="#0096CB" stroke="#0096CB" stroke-width="0.6196" stroke-miterlimit="10" d="M120.8,31.3
				C120.8,31.3,120.8,31.3,120.8,31.3c-0.1,0.1-0.1,0.1-0.1,0.1c0,0-0.1,0-0.1-0.1c-0.1,0-0.1-0.1-0.3-0.2c-0.1-0.1-0.2-0.1-0.4-0.2
				c-0.2,0-0.3-0.1-0.6-0.1c-0.3,0-0.6,0.1-0.8,0.2c-0.2,0.1-0.4,0.3-0.6,0.5c-0.2,0.2-0.3,0.5-0.4,0.7c-0.1,0.3-0.1,0.6-0.1,1
				c0,0.4,0,0.7,0.1,1s0.2,0.5,0.4,0.7c0.2,0.2,0.4,0.3,0.6,0.5c0.2,0.1,0.5,0.2,0.8,0.2c0.3,0,0.5,0,0.6-0.1
				c0.2-0.1,0.3-0.1,0.4-0.2s0.2-0.1,0.3-0.2c0.1-0.1,0.1-0.1,0.2-0.1c0,0,0.1,0,0.1,0.1l0.1,0.2c-0.1,0.1-0.2,0.2-0.3,0.3
				c-0.1,0.1-0.3,0.2-0.4,0.2c-0.2,0.1-0.3,0.1-0.5,0.2c-0.2,0-0.4,0.1-0.6,0.1c-0.3,0-0.7-0.1-0.9-0.2c-0.3-0.1-0.5-0.3-0.7-0.5
				c-0.2-0.2-0.4-0.5-0.5-0.9c-0.1-0.3-0.2-0.7-0.2-1.2c0-0.4,0.1-0.8,0.2-1.1c0.1-0.3,0.3-0.6,0.5-0.9c0.2-0.2,0.5-0.4,0.8-0.6
				c0.3-0.1,0.6-0.2,1-0.2c0.3,0,0.7,0.1,0.9,0.2c0.3,0.1,0.5,0.3,0.7,0.5L120.8,31.3z"/>
			<path fill="#0096CB" stroke="#0096CB" stroke-width="0.6196" stroke-miterlimit="10" d="M124.2,30.5c0.4,0,0.7,0.1,1,0.2
				c0.3,0.1,0.6,0.3,0.8,0.6c0.2,0.2,0.4,0.5,0.5,0.9c0.1,0.3,0.2,0.7,0.2,1.1c0,0.4-0.1,0.8-0.2,1.1c-0.1,0.3-0.3,0.6-0.5,0.9
				c-0.2,0.2-0.5,0.4-0.8,0.6c-0.3,0.1-0.6,0.2-1,0.2c-0.4,0-0.7-0.1-1-0.2c-0.3-0.1-0.6-0.3-0.8-0.6c-0.2-0.2-0.4-0.5-0.5-0.9
				c-0.1-0.3-0.2-0.7-0.2-1.1c0-0.4,0.1-0.8,0.2-1.1c0.1-0.3,0.3-0.6,0.5-0.9c0.2-0.2,0.5-0.4,0.8-0.6
				C123.5,30.6,123.8,30.5,124.2,30.5z M124.2,35.6c0.3,0,0.6-0.1,0.8-0.2c0.2-0.1,0.4-0.3,0.6-0.5c0.2-0.2,0.3-0.5,0.4-0.7
				c0.1-0.3,0.1-0.6,0.1-1c0-0.4,0-0.7-0.1-1c-0.1-0.3-0.2-0.5-0.4-0.7c-0.2-0.2-0.4-0.4-0.6-0.5c-0.2-0.1-0.5-0.2-0.8-0.2
				c-0.3,0-0.6,0.1-0.8,0.2c-0.2,0.1-0.4,0.3-0.6,0.5c-0.2,0.2-0.3,0.5-0.4,0.7c-0.1,0.3-0.1,0.6-0.1,1c0,0.4,0,0.7,0.1,1
				c0.1,0.3,0.2,0.5,0.4,0.7c0.2,0.2,0.4,0.4,0.6,0.5C123.6,35.6,123.9,35.6,124.2,35.6z"/>
		</g>
	</g>
</g>
<g id="logo">
	<g>
		<path fill="none" stroke="#C75233" stroke-width="1.3854" stroke-linecap="round" stroke-miterlimit="10" d="M14.4,28.7"/>
		<path fill="none" stroke="#C75233" stroke-width="1.3854" stroke-linecap="round" stroke-miterlimit="10" d="M30.4,17.1"/>
		<g>
			<path fill="none" stroke="#07032D" stroke-width="0.9236" stroke-miterlimit="10" d="M15.8,9.6l-0.9,3.8l-2,1.5l1.9-8.2
				c0.1-0.4,0.1-0.7,0.1-1C15.8,6.7,16.1,8.2,15.8,9.6z"/>
			<path fill="none" stroke="#07032D" stroke-width="0.9236" stroke-miterlimit="10" d="M32.4,15.7L9.6,32.4c0,0,0,0-0.1,0
				c-0.8,0.8-2,1.2-3.2,1.2c-0.4,0-0.7,0-1.1-0.1C3.1,33,1.7,31.1,1.7,29c0.6,0.8,1.5,1.4,2.6,1.7c0.4,0.1,0.7,0.1,1.1,0.1
				c1.2,0,2.3-0.5,3.2-1.2c0,0,0,0,0.1,0l22.9-16.7c1.2-0.9,1.9-2.3,1.9-3.7c0,0,0,0.1,0.1,0.1C35,11.2,34.5,14.2,32.4,15.7z"/>
			<path fill="none" stroke="#07032D" stroke-width="0.9236" stroke-miterlimit="10" d="M33.4,9.1c0,1.4-0.7,2.8-1.9,3.7L8.6,29.5
				c0,0,0,0-0.1,0c-0.8,0.8-2,1.2-3.2,1.2c-0.4,0-0.7,0-1.1-0.1c-1.1-0.3-2-0.9-2.6-1.7c-0.8-1.1-1.2-2.5-0.8-3.9L5.8,4.6
				C6.3,2.4,8.2,1,10.3,1c0.4,0,0.7,0,1.1,0.1c2.1,0.5,3.6,2.4,3.6,4.6c0,0.3,0,0.7-0.1,1l-1.9,8.2l2-1.5L26,5.3
				c2.1-1.5,5-1.1,6.5,1C33.1,7.1,33.4,8.1,33.4,9.1z"/>
		</g>
		<g>
			<path fill="none" stroke="#07032D" stroke-width="0.9236" stroke-linecap="round" stroke-miterlimit="10" d="M27.4,22.2l9.4,18.2
				c1.2,2.2,0.4,4.9-1.7,6.1l0,0c-0.5,0.3-1.1,0.5-1.7,0.6"/>
			<path fill="none" stroke="#07032D" stroke-width="0.9236" stroke-linecap="round" stroke-miterlimit="10" d="M17.5,29.5l8.7,16.3
				c1.3,2.3,4.2,3.1,6.4,1.7l0,0c2.1-1.3,2.9-4,1.7-6.1l-8.6-17.8"/>
		</g>
	</g>
</g>
<g id="kenji">
	<g>
		<g>
			<path fill="#07032D" d="M45.9,19.6h0.4c0.2,0,0.3,0,0.4-0.1c0.1,0,0.2-0.1,0.3-0.2l2.6-3.4c0.1-0.1,0.2-0.2,0.3-0.3
				c0.1-0.1,0.3-0.1,0.4-0.1h1.5l-3.2,4c-0.1,0.1-0.2,0.2-0.3,0.3c-0.1,0.1-0.2,0.2-0.3,0.2c0.1,0.1,0.3,0.1,0.4,0.2
				c0.1,0.1,0.2,0.2,0.3,0.4l3.3,4.5h-1.5c-0.2,0-0.4,0-0.5-0.1S50,25,49.9,24.9l-2.6-3.6c-0.1-0.1-0.2-0.2-0.3-0.3
				C46.8,21,46.7,21,46.5,21h-0.6v4.3h-1.7v-9.7h1.7V19.6z"/>
			<path fill="#07032D" d="M59.1,15.5V17h-4.2v2.7h3.3V21h-3.3v2.7h4.2v1.4h-5.9v-9.7H59.1z"/>
			<path fill="#07032D" d="M61.7,15.5c0.1,0,0.1,0,0.1,0c0,0,0.1,0,0.1,0.1c0,0,0.1,0.1,0.1,0.2l4.9,6.5c0-0.2,0-0.3,0-0.5
				c0-0.1,0-0.3,0-0.4v-5.9h1.5v9.7h-0.9c-0.1,0-0.3,0-0.3-0.1c-0.1,0-0.2-0.1-0.3-0.2l-4.9-6.5c0,0.1,0,0.3,0,0.4
				c0,0.1,0,0.3,0,0.4v6h-1.5v-9.7h0.9C61.6,15.5,61.7,15.5,61.7,15.5z"/>
			<path fill="#07032D" d="M80.9,25.2h-1.7v-9.7h1.7V25.2z"/>
			<path fill="#07032D" d="M92.1,15.5V17h-2.8v8.2h-1.7V17h-2.8v-1.5H92.1z"/>
			<path fill="#07032D" d="M95,21.4v3.8h-1.7v-9.7h2.9c0.6,0,1.2,0.1,1.6,0.2c0.5,0.1,0.8,0.3,1.1,0.6c0.3,0.2,0.5,0.5,0.6,0.9
				c0.1,0.3,0.2,0.7,0.2,1.1c0,0.3,0,0.6-0.1,0.9c-0.1,0.3-0.2,0.6-0.4,0.8c-0.2,0.2-0.4,0.4-0.6,0.6c-0.3,0.2-0.6,0.3-0.9,0.4
				c0.2,0.1,0.4,0.3,0.6,0.6l2.3,3.6H99c-0.2,0-0.3,0-0.4-0.1c-0.1-0.1-0.2-0.2-0.3-0.3l-2-3.1c-0.1-0.1-0.2-0.2-0.2-0.2
				c-0.1,0-0.2-0.1-0.4-0.1H95z M95,20.1h1.1c0.3,0,0.6,0,0.9-0.1c0.2-0.1,0.4-0.2,0.6-0.4c0.2-0.1,0.3-0.3,0.4-0.5
				c0.1-0.2,0.1-0.4,0.1-0.7c0-0.5-0.2-0.9-0.5-1.1c-0.3-0.3-0.8-0.4-1.4-0.4H95V20.1z"/>
			<path fill="#07032D" d="M105.1,23.8c0.3,0,0.6-0.1,0.9-0.2c0.3-0.1,0.5-0.3,0.7-0.5c0.2-0.2,0.3-0.5,0.4-0.8
				c0.1-0.3,0.1-0.6,0.1-1v-5.8h1.7v5.8c0,0.6-0.1,1.1-0.3,1.6c-0.2,0.5-0.4,0.9-0.8,1.3c-0.3,0.4-0.7,0.6-1.2,0.8
				c-0.5,0.2-1,0.3-1.6,0.3s-1.1-0.1-1.6-0.3s-0.9-0.5-1.2-0.8c-0.3-0.4-0.6-0.8-0.8-1.3c-0.2-0.5-0.3-1-0.3-1.6v-5.8h1.7v5.8
				c0,0.4,0,0.7,0.1,1c0.1,0.3,0.2,0.6,0.4,0.8c0.2,0.2,0.4,0.4,0.7,0.5C104.5,23.7,104.8,23.8,105.1,23.8z"/>
			<path fill="#07032D" d="M114.5,21.8c0,0.5-0.1,1-0.2,1.5c-0.1,0.4-0.3,0.8-0.6,1.1c-0.3,0.3-0.6,0.5-1,0.7
				c-0.4,0.2-0.8,0.2-1.3,0.2c-0.2,0-0.5,0-0.7,0c-0.2,0-0.5-0.1-0.7-0.1l0.1-1.1c0-0.1,0-0.2,0.1-0.2s0.2-0.1,0.3-0.1
				c0.1,0,0.2,0,0.3,0c0.1,0,0.3,0,0.5,0c0.2,0,0.5,0,0.7-0.1c0.2-0.1,0.3-0.2,0.5-0.4c0.1-0.2,0.2-0.4,0.3-0.6s0.1-0.6,0.1-0.9
				v-6.3h1.7V21.8z"/>
			<path fill="#07032D" d="M118.4,25.2h-1.7v-9.7h1.7V25.2z"/>
			<path fill="#07032D" d="M122.2,23.7h3.8v1.5h-5.5v-9.7h1.7V23.7z"/>
			<path fill="#07032D" d="M128.9,23.7h3.8v1.5h-5.5v-9.7h1.7V23.7z"/>
			<path fill="#07032D" d="M142.4,20.4c0,0.7-0.1,1.4-0.3,2c-0.2,0.6-0.6,1.1-1,1.6c-0.4,0.4-0.9,0.8-1.5,1
				c-0.6,0.2-1.2,0.4-1.9,0.4c-0.7,0-1.4-0.1-1.9-0.4c-0.6-0.2-1.1-0.6-1.5-1s-0.7-1-1-1.6c-0.2-0.6-0.3-1.3-0.3-2
				c0-0.7,0.1-1.4,0.3-2c0.2-0.6,0.6-1.1,1-1.6s0.9-0.8,1.5-1c0.6-0.2,1.2-0.4,1.9-0.4c0.7,0,1.4,0.1,1.9,0.4c0.6,0.3,1.1,0.6,1.5,1
				c0.4,0.4,0.7,1,1,1.6C142.2,19,142.4,19.7,142.4,20.4z M140.6,20.4c0-0.5-0.1-1-0.2-1.4c-0.1-0.4-0.3-0.8-0.6-1.1
				s-0.6-0.5-0.9-0.7c-0.4-0.2-0.8-0.2-1.2-0.2c-0.5,0-0.9,0.1-1.2,0.2c-0.4,0.2-0.7,0.4-0.9,0.7s-0.5,0.7-0.6,1.1
				c-0.1,0.4-0.2,0.9-0.2,1.4c0,0.5,0.1,1,0.2,1.4c0.1,0.4,0.3,0.8,0.6,1.1s0.6,0.5,0.9,0.7c0.4,0.2,0.8,0.2,1.2,0.2
				c0.5,0,0.9-0.1,1.2-0.2c0.4-0.2,0.7-0.4,0.9-0.7s0.5-0.7,0.6-1.1C140.5,21.4,140.6,20.9,140.6,20.4z"/>
		</g>
		<g>
			<path fill="#07032D" d="M75.9,21.8c0,0.5-0.1,1-0.2,1.5c-0.1,0.4-0.3,0.8-0.6,1.1c-0.3,0.3-0.6,0.5-1,0.7
				c-0.4,0.2-0.9,0.2-1.4,0.2c-0.2,0-0.5,0-0.7,0c-0.2,0-0.5-0.1-0.7-0.1l0.1-1.1c0-0.1,0-0.2,0.1-0.2s0.2-0.1,0.3-0.1
				c0.1,0,0.2,0,0.3,0c0.1,0,0.3,0,0.5,0c0.3,0,0.5,0,0.7-0.1c0.2-0.1,0.4-0.2,0.5-0.4c0.1-0.2,0.2-0.4,0.3-0.6
				c0.1-0.3,0.1-0.6,0.1-0.9v-6.3h1.8V21.8z"/>
		</g>
	</g>
</g>
</svg>
